<?xml version="1.0" encoding="utf-8"?>
<!-- Generator: Adobe Illustrator 26.1.0, SVG Export Plug-In . SVG Version: 6.00 Build 0)  -->
<svg version="1.1" id="Layer_1" xmlns="http://www.w3.org/2000/svg" xmlns:xlink="http://www.w3.org/1999/xlink" x="0px" y="0px"
	 viewBox="0 0 939.5 417" style="enable-background:new 0 0 939.5 417;" xml:space="preserve">
<style type="text/css">
	.st0{enable-background:new    ;}
	.st1{fill:#5CEACA;}
	.st2{fill:url(#Path-copy_00000121988322064401898130000014474434672205520513_);}
	.st3{fill:url(#Path-copy-6_00000023981568453679448860000015880889012289445000_);}
	.st4{fill:url(#Path-copy-5_00000091732530399391073790000005550057014486014368_);}
	.st5{fill:url(#Path-copy-2_00000044162496083823920560000003220946023899751812_);}
</style>
<image style="display:none;overflow:visible;enable-background:new    ;" width="3456" height="2234" id="Image-Layer" xlink:href="852D51B6D351FF4B.png"  transform="matrix(1 0 0 1 -1327 -909)">
</image>
<g id="Group-copy">
	<g class="st0">
		<path class="st1" d="M352.6,52v44.3h-48.7V52H352.6z M352.6,118v183.4h-48.7V118H352.6z"/>
	</g>
	<g class="st0">
		<path class="st1" d="M469.5,61.4c0.8-0.8,1.8-1.2,3-1.2h40.3c1.2,0,2.1,0.4,3,1.2c0.8,0.8,1.2,1.8,1.2,3v232.9
			c0,1.2-0.4,2.2-1.2,3c-0.8,0.8-1.8,1.2-3,1.2h-40.3c-1.2,0-2.2-0.4-3-1.2c-0.8-0.8-1.2-1.8-1.2-3v-5.5c0-0.6-0.3-1-0.6-1.2
			c-0.5-0.1-0.9,0-1.4,0.5c-7.9,8.8-18.2,13.1-31,13.1c-15.8,0-27.8-5.2-35.8-15.3c-8-10.2-12.1-24.3-12.1-42.5v-66.8
			c0-18.5,4.1-32.8,12.2-42.9c8.1-10,20.1-14.9,35.7-14.9c5,0,10.3,1,15.8,3c5.5,1.9,10.6,5.4,15.2,10.6c0.5,0.5,0.9,0.6,1.4,0.5
			c0.5-0.1,0.6-0.5,0.6-1.2V64.3C468.4,63.2,468.7,62.3,469.5,61.4z M462.8,258.2c3-2.7,4.8-6.4,5.5-11.1v-68.9
			c-0.6-4.6-2.6-8.2-5.5-11.1c-3-2.7-6.6-4.1-10.7-4.1c-4.8,0-8.8,1.8-11.7,5.5c-3,3.7-4.5,8.4-4.5,14.2v59.9
			c0,5.8,1.5,10.4,4.5,14.2c3,3.7,7,5.5,11.7,5.5C456.3,262.4,459.9,261.1,462.8,258.2z"/>
		<path class="st1" d="M636.8,125.6c1.8,1.2,2.6,2.8,2.1,5.2l-6.6,40.3c-0.3,2.6-1.8,3.5-4.8,2.7c-2.6-0.9-5.7-1.4-9.3-1.4
			c-3.5,0-6.4,0.5-9,1.4c-5.3,0.9-9.5,4.1-12.7,9.5c-3.2,5.4-4.8,11.7-4.8,18.8v94.8c0,1.2-0.4,2.2-1.2,3s-1.8,1.2-3,1.2h-40.3
			c-1.2,0-2.2-0.4-3-1.2c-0.8-0.8-1.2-1.8-1.2-3V128.4c0-1.2,0.4-2.1,1.2-3c0.8-0.8,1.8-1.2,3-1.2h40.3c1.2,0,2.1,0.4,3,1.2
			c0.8,0.8,1.2,1.8,1.2,3v13.4c0,0.9,0.1,1.4,0.5,1.5c0.4,0.1,0.8-0.1,1.2-0.9c6.2-13.5,15.8-20.3,29-20.3
			C628.5,122.3,633.3,123.4,636.8,125.6z"/>
		<path class="st1" d="M659.7,96.5c-5.2-5.2-7.7-11.6-7.7-19.4c0-8,2.6-14.5,7.6-19.6c5-5,11.6-7.6,19.6-7.6s14.5,2.6,19.4,7.6
			c4.9,5,7.5,11.6,7.5,19.6c0,7.9-2.6,14.3-7.6,19.4c-5,5.2-11.5,7.7-19.3,7.7C671.3,104.4,664.8,101.7,659.7,96.5z M656.6,300.1
			c-0.8-0.8-1.2-1.8-1.2-3V128.4c0-1.2,0.4-2.1,1.2-3c0.8-0.8,1.8-1.2,3-1.2h40.3c1.2,0,2.1,0.4,3,1.2c0.8,0.8,1.2,1.8,1.2,3v168.8
			c0,1.2-0.4,2.2-1.2,3c-0.8,0.8-1.8,1.2-3,1.2h-40.3C658.4,301.4,657.4,301,656.6,300.1z"/>
		<path class="st1" d="M742.7,289.8c-11.6-9.3-17.4-21.8-17.4-37.3V250c0-1.2,0.4-2.1,1.2-3c0.8-0.8,1.8-1.2,3-1.2h37.9
			c1.2,0,2.1,0.4,3,1.2c0.8,0.8,1.2,1.8,1.2,3v1c0,4.8,1.7,8.8,5.2,11.8c3.5,3.1,7.7,4.6,12.7,4.6c4.6,0,8.2-1.3,10.8-4
			c2.6-2.6,4-6.1,4-10.2c0-5-2.2-9-6.6-11.8c-4.4-2.8-9.3-5.3-14.7-7.2c-5.4-1.9-9.1-3.2-11.2-4c-12.6-4.6-23.3-10.9-31.8-19.1
			c-8.6-8.1-12.9-20-12.9-35.3c0-16.7,5.5-30,16.5-39.7c11.1-9.7,25.8-14.4,44-14.4c19.1,0,34.1,5,45.3,15.2
			c11.1,10.2,16.7,23.8,16.7,40.9c0,1.2-0.4,2.2-1.2,3c-0.8,0.8-1.8,1.2-3,1.2h-36.8c-1.2,0-2.2-0.4-3-1.2c-0.8-0.8-1.2-1.8-1.2-3
			v-2.7c0-4.6-1.4-8.4-4.2-11.2s-6.6-4.2-11.2-4.2c-4.8,0-8.6,1.5-11.3,4.6c-2.7,3.1-4.1,6.7-4.1,10.8c0,5.5,2.3,9.8,7.1,12.9
			c4.8,3.1,11.8,6.4,21.5,10.2c9.9,3.7,18.3,7.5,25.4,11.2c7,3.7,13,9.1,18,16.2c5,7,7.6,15.8,7.6,26.4c0,15.8-5.8,28.5-17.4,37.7
			c-11.6,9.3-27,13.9-46.4,13.9C769.9,303.8,754.3,299,742.7,289.8z"/>
	</g>
	<g class="st0">
		<path class="st1" d="M874.6,251.3h51v50.1h-51V251.3z"/>
	</g>
	<g id="Group">
		
			<linearGradient id="Path-copy_00000063612917260718156940000005873046262172442786_" gradientUnits="userSpaceOnUse" x1="178.087" y1="59.9" x2="178.087" y2="-279.4" gradientTransform="matrix(1 0 0 1 0 318)">
			<stop  offset="0" style="stop-color:#FFA801"/>
			<stop  offset="1" style="stop-color:#FFCC01"/>
		</linearGradient>
		<path id="Path-copy" style="fill:url(#Path-copy_00000063612917260718156940000005873046262172442786_);" d="M178.1,377.9
			c-9.1,0-16.4-7.3-16.4-16.4s7.3-16.4,16.4-16.4c9.1,0,16.4,7.3,16.4,16.4C194.5,370.5,187.1,377.9,178.1,377.9z M303.9,361.5
			v-10.9c-64.6,0-117.4-51.1-120.3-114.9h21.8V181h-21.9V77h-10.9v57C152.3,87.5,106,55,52.2,55v10.9c64.6,0,117.4,51.1,120.3,114.9
			h-21.8v54.7h21.9v104h10.9v-57C203.8,328.9,250.1,361.5,303.9,361.5L303.9,361.5z M342.2,372.4v-32.8h-32.8v32.8H342.2z
			 M178.1,71.4c9.1,0,16.4-7.3,16.4-16.4s-7.3-16.4-16.4-16.4c-9.1,0-16.4,7.3-16.4,16.4C161.6,64.1,169,71.4,178.1,71.4z M13.9,44
			v32.8h32.8V44H13.9z"/>
		
			<linearGradient id="Path-copy-6_00000105392709531148170910000005378867743021867907_" gradientUnits="userSpaceOnUse" x1="178.587" y1="-60.3" x2="178.587" y2="-159.2" gradientTransform="matrix(1 0 0 1 0 318)">
			<stop  offset="0" style="stop-color:#1C70F2"/>
			<stop  offset="1" style="stop-color:#1AC9FB"/>
		</linearGradient>
		<path id="Path-copy-6" style="fill:url(#Path-copy-6_00000105392709531148170910000005378867743021867907_);" d="M228,158.8v98.9
			h-98.9v-98.9L228,158.8L228,158.8z"/>
		
			<linearGradient id="Path-copy-5_00000026125927401060953370000013853811885189157820_" gradientUnits="userSpaceOnUse" x1="178.5501" y1="98.6" x2="178.5239" y2="-0.4" gradientTransform="matrix(1 0 0 1 0 318)">
			<stop  offset="0" style="stop-color:#0495A0"/>
			<stop  offset="1" style="stop-color:#05B6BE"/>
		</linearGradient>
		<path id="Path-copy-5" style="fill:url(#Path-copy-5_00000026125927401060953370000013853811885189157820_);" d="M178.5,416.6
			c-27.3,0-49.5-22.2-49.5-49.5s22.1-49.5,49.5-49.5c27.3,0,49.5,22.2,49.5,49.5S205.8,416.6,178.5,416.6"/>
		
			<linearGradient id="Path-copy-2_00000026142963908162365890000011426214578120006278_" gradientUnits="userSpaceOnUse" x1="178.737" y1="-218.6" x2="178.737" y2="-317.6" gradientTransform="matrix(1 0 0 1 0 318)">
			<stop  offset="0" style="stop-color:#DC2B20"/>
			<stop  offset="1" style="stop-color:#DC5262"/>
		</linearGradient>
		<path id="Path-copy-2" style="fill:url(#Path-copy-2_00000026142963908162365890000011426214578120006278_);" d="M178.7,99.4
			l49.5-49.5L178.7,0.4l-49.5,49.5L178.7,99.4z"/>
	</g>
</g>
</svg>
